<?xml version="1.0" encoding="iso-8859-1"?>
<!-- Generator: Adobe Illustrator 22.1.0, SVG Export Plug-In . SVG Version: 6.00 Build 0)  -->
<svg version="1.1" id="Layer_1" xmlns="http://www.w3.org/2000/svg" xmlns:xlink="http://www.w3.org/1999/xlink" x="0px" y="0px"
	 viewBox="0 0 33.017 33.017" style="enable-background:new 0 0 33.017 33.017;" xml:space="preserve">
<rect style="fill:#EF4136;" width="33.017" height="33.017"/>
<path style="display:none;fill:#F4C92D;" d="M7.029,24.479H6.7v-0.385h0.795v0.993c-0.216,0.074-0.454,0.111-0.712,0.111
	c-0.284,0-0.503-0.082-0.659-0.247c-0.155-0.165-0.233-0.399-0.233-0.705c0-0.297,0.085-0.528,0.254-0.694
	c0.17-0.165,0.408-0.248,0.714-0.248c0.116,0,0.225,0.011,0.328,0.032c0.103,0.022,0.193,0.05,0.269,0.084L7.3,23.812
	c-0.133-0.065-0.279-0.099-0.437-0.099c-0.146,0-0.258,0.047-0.337,0.142c-0.08,0.095-0.119,0.229-0.119,0.405
	c0,0.173,0.036,0.304,0.108,0.395c0.072,0.09,0.175,0.135,0.311,0.135"/>
<path style="display:none;fill:#F4C92D;" d="M8.369,24.503v0.671H7.871v-1.843h0.604c0.5,0,0.751,0.182,0.751,0.545
	c0,0.213-0.104,0.378-0.313,0.495l0.537,0.803H8.886l-0.391-0.671H8.369z M8.369,24.129h0.093c0.174,0,0.261-0.077,0.261-0.231
	c0-0.127-0.085-0.19-0.256-0.19H8.369V24.129z"/>
<path style="display:none;fill:#F4C92D;" d="M11.343,24.25c0,0.31-0.076,0.546-0.228,0.707c-0.152,0.161-0.375,0.242-0.669,0.242
	c-0.289,0-0.511-0.081-0.665-0.243c-0.154-0.162-0.231-0.398-0.231-0.709c0-0.307,0.077-0.541,0.23-0.702
	c0.153-0.162,0.376-0.243,0.669-0.243c0.293,0,0.516,0.081,0.667,0.241C11.267,23.703,11.343,23.939,11.343,24.25z M10.075,24.25
	c0,0.356,0.124,0.534,0.371,0.534c0.126,0,0.22-0.043,0.281-0.13c0.061-0.086,0.091-0.221,0.091-0.404s-0.031-0.32-0.093-0.408
	c-0.062-0.087-0.154-0.131-0.277-0.131C10.199,23.711,10.075,23.891,10.075,24.25z"/>
<path style="display:none;fill:#F4C92D;" d="M13.666,25.174h-0.589l-0.176-0.803c-0.008-0.033-0.022-0.101-0.04-0.2
	c-0.018-0.101-0.031-0.184-0.04-0.251c-0.007,0.055-0.017,0.122-0.033,0.203c-0.015,0.081-0.03,0.156-0.045,0.224
	c-0.015,0.068-0.076,0.344-0.183,0.827h-0.589l-0.457-1.843h0.481l0.2,0.924c0.045,0.204,0.077,0.367,0.094,0.488
	c0.011-0.086,0.03-0.202,0.059-0.35c0.028-0.146,0.054-0.268,0.079-0.365l0.163-0.697h0.461l0.157,0.697
	c0.027,0.111,0.055,0.24,0.082,0.387c0.028,0.146,0.046,0.256,0.056,0.328c0.011-0.094,0.04-0.255,0.089-0.485l0.205-0.927h0.48
	L13.666,25.174z"/>
<path style="display:none;fill:#F4C92D;" d="M15.171,25.174h-0.498v-1.435h-0.45v-0.407h1.396v0.407h-0.449"/>
<path style="fill:#F4C92D;" d="M16.384,25.174"/>
<path style="fill:#FFFFFF;" d="M19.03,24.563"/>
<path style="fill:#FFFFFF;" d="M18.698,12.016l-2.967,2.658"/>
<path style="fill:#FFFFFF;" d="M10.116,16.199c0.102-0.832,0.395-1.644,0.848-2.35c0.453-0.705,1.07-1.31,1.785-1.747l2.631-1.613
	l0.127,0.062c0.425,0.208,0.678,0.466,0.774,0.789c0.106,0.356,0.014,0.759-0.289,1.266l-0.017,0.028l-1.469,1.448l3.11,0.768
	l2.728-2.495c0.227-0.209,0.523-0.323,0.832-0.323c0.295,0,0.581,0.105,0.805,0.299c0.255,0.22,0.406,0.526,0.426,0.862
	c0.019,0.337-0.095,0.658-0.324,0.906l-3.285,3.569c-0.34,0.369-0.823,0.581-1.324,0.581c-0.051,0-0.104-0.002-0.154-0.007
	l-3.117-0.268c-0.05-0.004-0.102-0.007-0.152-0.007c-0.418,0-0.825,0.149-1.144,0.42l-3.409,2.888L10.116,16.199z"/>
<path style="fill:#FFFFFF;" d="M17.102,11.637c0,0,2.527-0.748,2.963-3.074c0.436-2.326-0.953-3.323-0.716-4.818
	C17.102,5.322,14.786,6.985,17.102,11.637z"/>
<path style="fill:#8DC63F;" d="M17.146,11.73c0,0,2.208-1.439,1.96-3.793c-0.248-2.353-1.863-2.912-2.063-4.413
	C15.34,5.68,13.596,7.937,17.146,11.73z"/>
<path style="fill:#FFFFFF;" d="M16.956,14.894l2.158-1.974c0.351-0.321,0.328-0.881-0.048-1.172l0,0
	c-0.293-0.227-0.706-0.213-0.982,0.034l-2.967,2.658L16.956,14.894z"/>
<g>
</g>
<g>
	<path style="fill:#FFCB00;" d="M7.26,25.393c-0.117,0.042-0.349,0.111-0.622,0.111c-0.307,0-0.559-0.078-0.758-0.268
		c-0.174-0.169-0.282-0.439-0.282-0.755c0.003-0.604,0.417-1.046,1.097-1.046c0.234,0,0.417,0.051,0.505,0.093l-0.063,0.214
		c-0.108-0.048-0.244-0.088-0.448-0.088c-0.493,0-0.814,0.307-0.814,0.815c0,0.514,0.31,0.817,0.782,0.817
		c0.171,0,0.289-0.024,0.349-0.054v-0.604H6.593v-0.211H7.26V25.393z"/>
	<path style="fill:#FFCB00;" d="M7.656,23.483c0.132-0.027,0.322-0.042,0.502-0.042c0.28,0,0.46,0.051,0.586,0.165
		c0.103,0.091,0.16,0.229,0.16,0.385c0,0.268-0.168,0.445-0.382,0.518v0.009c0.156,0.054,0.25,0.198,0.297,0.409
		c0.066,0.282,0.114,0.478,0.156,0.556H8.705c-0.033-0.057-0.078-0.231-0.135-0.484c-0.06-0.279-0.168-0.385-0.406-0.394H7.917
		v0.878H7.656V23.483z M7.917,24.406h0.268c0.28,0,0.457-0.153,0.457-0.385c0-0.262-0.189-0.376-0.466-0.379
		c-0.126,0-0.216,0.012-0.259,0.024V24.406z"/>
	<path style="fill:#FFCB00;" d="M11.011,24.448c0,0.697-0.424,1.067-0.941,1.067c-0.535,0-0.911-0.415-0.911-1.028
		c0-0.644,0.399-1.064,0.941-1.064C10.653,23.423,11.011,23.848,11.011,24.448z M9.438,24.481c0,0.433,0.234,0.82,0.646,0.82
		c0.415,0,0.649-0.382,0.649-0.842c0-0.402-0.21-0.823-0.646-0.823C9.655,23.637,9.438,24.036,9.438,24.481z"/>
	<path style="fill:#FFCB00;" d="M11.677,25.482l-0.514-2.026h0.277l0.24,1.025c0.06,0.253,0.114,0.505,0.15,0.7h0.006
		c0.033-0.201,0.096-0.441,0.166-0.703l0.271-1.022h0.273l0.247,1.028c0.057,0.24,0.111,0.481,0.141,0.694h0.006
		c0.042-0.223,0.099-0.448,0.162-0.7l0.268-1.022h0.268l-0.574,2.026h-0.273l-0.255-1.055c-0.063-0.259-0.105-0.457-0.132-0.662
		h-0.006c-0.036,0.202-0.081,0.4-0.156,0.662l-0.289,1.055H11.677z"/>
	<path style="fill:#FFCB00;" d="M14.368,23.679h-0.616v-0.223h1.5v0.223h-0.619v1.804h-0.265V23.679z"/>
	<path style="fill:#FFCB00;" d="M15.735,23.456v0.848h0.98v-0.848h0.265v2.026h-0.265v-0.95h-0.98v0.95h-0.261v-2.026H15.735z"/>
	<path style="fill:#FFFFFF;" d="M18.066,23.48c0.126-0.021,0.291-0.039,0.502-0.039c0.258,0,0.447,0.061,0.568,0.168
		c0.111,0.097,0.178,0.244,0.178,0.424c0,0.184-0.055,0.328-0.156,0.434c-0.139,0.146-0.364,0.222-0.62,0.222
		c-0.078,0-0.149-0.003-0.21-0.018v0.812h-0.262V23.48z M18.328,24.457c0.057,0.016,0.129,0.021,0.217,0.021
		c0.314,0,0.508-0.153,0.508-0.433c0-0.268-0.189-0.397-0.479-0.397c-0.114,0-0.201,0.01-0.246,0.021V24.457z"/>
	<path style="fill:#FFFFFF;" d="M19.662,23.456h0.262v1.807h0.866v0.22h-1.128V23.456z"/>
	<path style="fill:#FFFFFF;" d="M21.405,24.845l-0.21,0.638h-0.271l0.688-2.026h0.315l0.691,2.026H22.34l-0.217-0.638H21.405z
		 M22.07,24.641l-0.198-0.583c-0.046-0.132-0.075-0.253-0.105-0.37H21.76c-0.03,0.12-0.063,0.244-0.103,0.367l-0.198,0.586H22.07z"
		/>
	<path style="fill:#FFFFFF;" d="M24.285,25.416c-0.097,0.049-0.289,0.097-0.535,0.097c-0.571,0-1.001-0.361-1.001-1.025
		c0-0.634,0.43-1.064,1.058-1.064c0.253,0,0.412,0.055,0.481,0.091l-0.063,0.213c-0.099-0.048-0.24-0.084-0.408-0.084
		c-0.476,0-0.791,0.304-0.791,0.836c0,0.496,0.285,0.814,0.778,0.814c0.159,0,0.322-0.033,0.427-0.084L24.285,25.416z"/>
	<path style="fill:#FFFFFF;" d="M25.658,24.532h-0.787v0.73h0.878v0.22h-1.14v-2.026h1.094v0.22h-0.832v0.641h0.787V24.532z"/>
</g>
<g>
</g>
<g>
</g>
<g>
</g>
<g>
</g>
<g>
</g>
<g>
</g>
<g>
</g>
<g>
</g>
<g>
</g>
<g>
</g>
<g>
</g>
<g>
</g>
<g>
</g>
<g>
</g>
<g>
</g>
</svg>
