<?xml version="1.0" encoding="iso-8859-1"?>
<!-- Generator: Adobe Illustrator 22.1.0, SVG Export Plug-In . SVG Version: 6.00 Build 0)  -->
<svg version="1.1" id="Layer_1" xmlns="http://www.w3.org/2000/svg" xmlns:xlink="http://www.w3.org/1999/xlink" x="0px" y="0px"
	 viewBox="0 0 33.017 33.018" style="enable-background:new 0 0 33.017 33.018;" xml:space="preserve">
<g>
	<rect style="fill:#FFFFFF;" width="33.017" height="33.018"/>
	<g>
		<path style="fill:#A2A2A2;" d="M10.312,11.049c-0.053-0.026-0.098-0.074-0.122-0.147c-0.003-0.009-0.007-0.019-0.014-0.033
			c-0.052-0.006-0.102-0.028-0.136-0.07c-0.355-0.443-1.093-0.428-1.518-0.099c-0.782,0.604-0.351,1.981-0.6,2.83
			c-0.164,0.559-0.531,1.037-0.948,1.434c-0.375,0.358-0.882,0.746-1.43,0.735c0.265-0.259,0.553-0.609,0.804-1.071
			c-0.432,0.592-1.122,1.121-1.859,1.24c-0.795,0.129-2.488-0.6-2.477-0.692c0.426-0.037,0.849-0.134,1.239-0.311
			c0.086-0.039,0.171-0.082,0.254-0.129c0.607-0.346,1.039-0.903,1.34-1.524c0.454-0.938,0.619-2.007,1.307-2.825
			c0.567-0.674,1.425-1.042,2.282-0.935c0.145,0.018,0.289,0.05,0.433,0.096c0.376,0.121,0.727,0.315,1.073,0.504
			c0.302,0.165,0.621,0.374,0.733,0.717C10.75,11.004,10.485,11.136,10.312,11.049z"/>
		<g>
			<path style="fill:#666666;" d="M25.744,6.701c-0.198,0.018-0.381,0.093-0.526,0.173l-0.004,0.012c0,0,0.152,0.114,0.272,0.255
				c0.077-0.111,0.176-0.247,0.287-0.384C25.792,6.733,25.773,6.698,25.744,6.701z"/>
		</g>
		<path style="fill:#A2A2A2;" d="M10.536,10.788l-0.224,0.261c-0.053-0.026-0.098-0.074-0.122-0.147
			c-0.003-0.009-0.007-0.019-0.014-0.033c-0.052-0.006-0.102-0.028-0.136-0.07c-0.355-0.443-1.093-0.428-1.518-0.099
			c-0.782,0.604-0.351,1.981-0.6,2.83c-0.164,0.559-0.531,1.037-0.948,1.434c-0.375,0.358-0.882,0.746-1.43,0.735
			c0.265-0.259,0.553-0.609,0.804-1.071c0.79-3.194,0.591-4.243,2.203-4.678c0.843-0.227,1.456,0.241,1.763,0.564l0,0h0.001
			C10.46,10.668,10.536,10.788,10.536,10.788z"/>
		<path style="fill:#666666;" d="M26.966,9.697c0,0-0.143,0.057-0.796-0.113c-0.102-0.003-0.204-0.019-0.306-0.037
			c-0.419,0.01-0.623,0.287-1.185,0.064c-0.123-0.049-0.229-0.112-0.318-0.184c0,0.001-0.001,0.002-0.001,0.002
			c-0.171-0.189-0.236-0.374-0.236-0.374c-0.013,0.16,0.09,0.34,0.186,0.47c-0.079,0.209-0.033,0.509-0.033,0.766
			c0,0.604-0.075,1.209-0.223,1.795c-0.083,0.329-0.318,0.614-0.405,0.93c-0.148,0.543-0.011,1.051-0.167,1.521
			c0.401,0.252,0.838,0.435,1.243,0.677c0.615,0.369,0.399,1.185,0.294,1.757c-0.134,0.732,0.106,1.526-0.206,2.228
			c-0.214,0.482-0.988,1.207-1.565,0.962c-0.382-0.162-0.039-1.057,0.258-1.222c0.191,0.006,0.454,0.002,0.519-0.026
			c0.013-0.007,0.025-0.014,0.037-0.021c0.003-0.001,0.006-0.001,0.009-0.002c0.269-0.074,0.145-0.295,0.11-0.466
			c-0.09-0.433,0.298-0.933,0.287-1.399c-0.019-0.802-0.432-1.28-1.257-1.23c-0.911,0.056-1.896-0.33-2.634-0.846
			c-0.125-0.088-0.263-0.171-0.409-0.243l-0.275-0.073c0.05,0.016,0.331,0.11,0.612,0.442c0.028,0.033,0.064,0.068,0.106,0.103
			c0.029,0.024,0.06,0.048,0.094,0.072c0.002,0.001,0.003,0.002,0.005,0.003c0.009,0.007,0.019,0.014,0.029,0.019
			c0.003,0.002,0.006,0.005,0.009,0.007c0.008,0.005,0.017,0.011,0.026,0.017c0.004,0.003,0.008,0.005,0.012,0.008
			c0.008,0.005,0.017,0.011,0.025,0.016c0.004,0.003,0.008,0.006,0.013,0.008c0.008,0.006,0.017,0.011,0.025,0.016
			c0.005,0.003,0.009,0.006,0.014,0.009c0.009,0.005,0.018,0.01,0.026,0.016c0.004,0.002,0.009,0.005,0.014,0.008
			c0.009,0.005,0.019,0.011,0.029,0.017c0.004,0.002,0.008,0.004,0.012,0.007c0.33,0.186,0.757,0.365,1.085,0.493
			c-0.244,0.453-0.498,0.903-0.656,1.385c-0.17,0.519-0.363,1.069-0.394,1.61c-0.028,0.464-0.047,0.94-0.035,1.407
			c0.003,0.15-0.008,0.301,0.013,0.45c0.021,0.147,0.096,0.275,0.199,0.38c0.192,0.196,0.226,0.401,0.268,0.668
			c0.063,0.395-0.399,0.351-0.681,0.362c-0.125,0.005-0.267,0.001-0.381-0.049c-0.161-0.071-0.161-0.174-0.155-0.328
			c0.014-0.375,0.098-0.425,0.021-0.794c-0.277-0.164-0.21-0.412-0.086-0.684c0.074-0.716,0.406-1.781,0.318-2.49
			c-0.034-0.273-0.215-0.551-0.196-0.829c0.024-0.356,0.277-0.688,0.315-1.062c0.011-0.111,0.019-0.223,0.024-0.333
			c-0.114,0.045-0.231,0.088-0.349,0.128c-0.613,0.207-1.193,0.518-1.834,0.603c-0.706,0.181-1.433,0.235-2.173,0.052
			c-0.781-0.192-1.416-0.675-2.133-1.014c-0.135-0.063-0.272-0.124-0.409-0.182c0.076-0.407,0.151-0.903,0.205-1.482
			c-0.148,0.561-0.319,1.081-0.426,1.393c-0.004-0.002-0.008-0.003-0.012-0.005c-0.028,0.102-0.06,0.202-0.094,0.303
			c0,0.001-0.001,0.002-0.001,0.002l0,0c-0.158,0.462-0.378,0.909-0.653,1.302c-0.174,0.249-0.625,0.46-0.849,0.661
			c-0.032,0.054-0.064,0.106-0.097,0.158c-0.208,0.322-0.437,0.567-0.478,0.982c-0.03,0.31,0.024,0.636,0.022,0.948
			c-0.003,0.354-0.056,0.724-0.021,1.077c0.017,0.176,0.052,0.305,0.102,0.411c0.026,0.057,0.058,0.107,0.093,0.154
			c0.087,0.119,0.201,0.22,0.334,0.358c0.273,0.284,0.948,1.159,0.208,1.327c-0.221,0.051-0.67-0.015-0.855-0.171
			c-0.153-0.129,0.053-0.821-0.077-0.817c-0.088,0.003-0.153-0.053-0.189-0.13c-0.016-0.034-0.026-0.072-0.03-0.111
			c-0.005-0.059-0.01-0.118-0.015-0.177c-0.061-0.824-0.026-1.65-0.415-2.387c-0.32-0.606-0.165-0.854,0.052-1.454
			c0.068-0.188,0.11-0.387,0.129-0.588c0.005-0.185,0.005-0.366-0.001-0.545c-0.011-0.119-0.029-0.237-0.054-0.354
			c-0.003,0.004-0.006,0.008-0.009,0.012c-0.075-0.286-0.252-0.884-0.5-1.202c0.101,0.571,0.245,1.036,0.285,1.494
			c-0.224,0.307-0.439,0.618-0.604,0.954c-0.241,0.49-0.509,1.008-0.617,1.538c-0.093,0.456-0.178,0.925-0.232,1.389
			c-0.018,0.149-0.05,0.298-0.05,0.448c0,0.148,0.069,0.191,0.156,0.31c0.163,0.222,0.255,0.489,0.26,0.76
			c0.006,0.4-0.544,0.325-0.826,0.297c-0.124-0.013-0.265-0.036-0.371-0.103c-0.149-0.093-0.136-0.194-0.108-0.346
			c0.066-0.369,0.157-0.407,0.132-0.784c-0.251-0.201-0.15-0.438,0.011-0.689c0.174-0.698,0.652-1.707,0.665-2.421
			c0.005-0.275-0.135-0.576-0.078-0.849c0.074-0.349,0.372-0.643,0.461-1.007c0.212-0.864,0.227-1.718,0.235-2.59
			C9.303,12.86,9.294,12.481,9.352,12.1c0.074-0.487,0.323-0.939,0.676-1.315c0.127-0.135,0.268-0.261,0.418-0.374
			c0.711-0.534,1.646-0.804,2.448-0.601c0.482,0.121,0.918,0.375,1.35,0.622c1.102,0.63,2.553,1.044,3.824,0.693
			c1.054-0.29,1.674-1.019,1.94-1.342l0.1-0.124c0.547-0.694,0.999-1.489,1.621-2.107c0.714-0.709,1.801-1.029,2.769-0.804
			c0.194,0.046,0.384,0.113,0.565,0.204c0.142,0.071,0.279,0.157,0.408,0.258c0.037,0.029,0.07,0.062,0.101,0.097
			c0.075,0.083,0.136,0.179,0.208,0.264c0.473,0.569,1.323,0.917,1.662,1.597C27.521,9.325,26.966,9.697,26.966,9.697z"/>
		<path style="fill:#A2A2A2;" d="M3.126,14.629c0.047-0.008,0.254,0.136,0.318,0.15c0.252,0.062,0.488,0.008,0.717-0.102
			c0.885-0.427,1.248-1.464,1.631-2.304c0.196-0.427,0.383-0.859,0.594-1.279c0.41-0.815,1.037-1.558,2.48-1.545
			c-2.518-0.744-3.342,1.914-3.382,2.016c-0.16,0.405-0.377,0.797-0.571,1.187c-0.218,0.434-0.395,0.898-0.69,1.289
			C3.947,14.403,3.573,14.558,3.126,14.629z"/>
		<path style="fill:#A2A2A2;" d="M25.679,6.929c-0.028-0.042-0.074-0.075-0.125-0.102c-0.004-0.001-0.007-0.003-0.011-0.005
			c-0.36-0.178-0.741-0.372-1.134-0.459c-0.491-0.109-1.035-0.088-1.526,0.019c-0.083,0.019-0.164,0.04-0.245,0.066l0.37,0.134
			c-0.427,0.032-0.895,0.14-1.242,0.399c-0.088,0.065-0.171,0.138-0.252,0.213c-0.029,0.027-0.193,0.238-0.198,0.238
			c0,0,0.437-0.027,0.516,0.023c-0.036,0.031-1.314,0.962-2.035,2.049l0.8,0.155l-0.9-0.031c-0.265,0.323-0.556,0.619-0.899,0.859
			l0.926,0.188c0,0-0.773,0.039-1.232,0.003l-0.734,0.292c0,0,0.636,0.384,1.612,0.155c0.977-0.229,1.705-1.515,2.124-2.166
			c0.139-0.215,0.279-0.424,0.427-0.62c0.496-0.655,1.081-1.161,1.988-1.258c0.524-0.056,0.973-0.051,1.551,0.18
			c0.005-0.015,0.011-0.029,0.017-0.045c0.04-0.103,0.129-0.182,0.223-0.239C25.696,6.959,25.689,6.943,25.679,6.929z"/>
		<path style="fill:#666666;" d="M24.828,7.307c0,0,0.254-0.415,0.594-0.832c0.025-0.031,0.001-0.078-0.039-0.074
			c-0.341,0.03-0.648,0.19-0.853,0.326c-0.133,0.087-0.134,0.281-0.003,0.372L24.828,7.307z"/>
	</g>
	<rect x="21.896" y="26.569" style="fill:#A3A3A3;" width="4.47" height="0.197"/>
	<rect x="5.601" y="26.569" style="fill:#A3A3A3;" width="4.47" height="0.197"/>
	<g>
		<path style="fill:#666666;" d="M11.068,26.419c0.034,0.023,0.053,0.053,0.053,0.087c0,0.041-0.026,0.063-0.059,0.063
			c-0.034,0-0.063-0.021-0.063-0.057c0-0.033,0.022-0.055,0.047-0.063c-0.015-0.026-0.058-0.047-0.101-0.047
			c-0.074,0-0.161,0.064-0.161,0.275c0,0.2,0.075,0.268,0.162,0.268c0.059,0,0.124-0.031,0.164-0.116l0.021,0.008
			c-0.023,0.073-0.087,0.156-0.207,0.156c-0.139,0-0.249-0.112-0.249-0.298c0-0.185,0.108-0.313,0.262-0.313
			C10.984,26.384,11.032,26.396,11.068,26.419z"/>
		<path style="fill:#666666;" d="M11.727,26.69c0,0.216-0.112,0.305-0.255,0.305c-0.143,0-0.255-0.089-0.255-0.305
			c0-0.217,0.113-0.306,0.255-0.306C11.615,26.384,11.727,26.473,11.727,26.69z M11.326,26.69c0,0.201,0.061,0.282,0.146,0.282
			c0.086,0,0.146-0.081,0.146-0.282c0-0.201-0.06-0.283-0.146-0.283C11.387,26.406,11.326,26.488,11.326,26.69z"/>
		<path style="fill:#666666;" d="M12.669,26.874c0,0.063,0.023,0.081,0.085,0.081v0.023c-0.025-0.001-0.085-0.004-0.135-0.004
			c-0.05,0-0.102,0.003-0.126,0.004v-0.023c0.054,0,0.074-0.019,0.074-0.081v-0.325c0-0.069-0.004-0.13-0.086-0.13
			c-0.087,0-0.151,0.089-0.151,0.204v0.251c0,0.063,0.023,0.081,0.085,0.081v0.023c-0.025-0.001-0.085-0.004-0.134-0.004
			c-0.049,0-0.103,0.003-0.126,0.004v-0.023c0.054,0,0.074-0.019,0.074-0.081v-0.325c0-0.069-0.004-0.13-0.085-0.13
			c-0.088,0-0.152,0.091-0.152,0.205v0.25c0,0.063,0.021,0.081,0.075,0.081v0.023c-0.024-0.001-0.077-0.004-0.127-0.004
			s-0.109,0.003-0.135,0.004v-0.023c0.062,0,0.086-0.019,0.086-0.081v-0.352c0-0.068-0.021-0.1-0.086-0.1v-0.023
			c0.024,0.002,0.047,0.003,0.07,0.003c0.044,0,0.085-0.005,0.117-0.016v0.133c0.039-0.098,0.112-0.136,0.185-0.136
			c0.053,0,0.091,0.016,0.117,0.042c0.02,0.021,0.03,0.051,0.034,0.091c0.04-0.102,0.116-0.133,0.188-0.133
			c0.053,0,0.091,0.016,0.117,0.042c0.028,0.031,0.037,0.077,0.037,0.147V26.874z"/>
		<path style="fill:#666666;" d="M13.362,26.663c0,0.162-0.075,0.331-0.258,0.331c-0.059,0-0.106-0.025-0.132-0.061v0.144
			c0,0.064,0.04,0.081,0.108,0.081v0.024c-0.033-0.001-0.097-0.005-0.162-0.005c-0.047,0-0.098,0.004-0.122,0.005v-0.024
			c0.054,0,0.074-0.016,0.074-0.069v-0.566c0-0.068-0.021-0.1-0.086-0.1v-0.023c0.024,0.002,0.047,0.003,0.07,0.003
			c0.044,0,0.084-0.005,0.117-0.016v0.119c0.034-0.078,0.101-0.122,0.18-0.122C13.271,26.384,13.362,26.481,13.362,26.663z
			 M13.252,26.678c0-0.178-0.045-0.261-0.131-0.261c-0.066,0-0.125,0.048-0.149,0.143v0.337c0.021,0.041,0.06,0.072,0.119,0.072
			C13.216,26.969,13.252,26.838,13.252,26.678z"/>
		<path style="fill:#666666;" d="M13.824,26.426c0.036,0.036,0.045,0.078,0.045,0.158v0.313c0,0.036,0.009,0.053,0.035,0.053
			c0.021,0,0.035-0.01,0.05-0.023l0.013,0.019c-0.031,0.024-0.055,0.041-0.102,0.041c-0.079,0-0.097-0.047-0.097-0.1
			c-0.048,0.079-0.119,0.1-0.173,0.1c-0.075,0-0.143-0.038-0.143-0.126c0-0.089,0.069-0.129,0.181-0.176
			c0.075-0.031,0.135-0.051,0.135-0.096V26.52c0-0.095-0.046-0.113-0.105-0.113c-0.039,0-0.085,0.008-0.111,0.04
			c0.028,0.007,0.053,0.032,0.053,0.068c0,0.039-0.026,0.062-0.066,0.062c-0.039,0-0.061-0.029-0.061-0.07
			c0-0.033,0.021-0.059,0.053-0.08c0.032-0.021,0.085-0.042,0.158-0.042C13.75,26.384,13.798,26.4,13.824,26.426z M13.767,26.635
			c-0.012,0.018-0.037,0.03-0.108,0.064c-0.049,0.024-0.109,0.057-0.109,0.143c0,0.068,0.039,0.1,0.09,0.1
			c0.045,0,0.089-0.023,0.127-0.085V26.635z"/>
		<path style="fill:#666666;" d="M14.491,26.426c0.028,0.031,0.039,0.071,0.039,0.147v0.301c0,0.063,0.023,0.081,0.085,0.081v0.023
			c-0.026-0.001-0.085-0.004-0.135-0.004c-0.049,0-0.102,0.003-0.126,0.004v-0.023c0.054,0,0.074-0.019,0.074-0.081v-0.325
			c0-0.069-0.01-0.13-0.091-0.13c-0.095,0-0.158,0.091-0.158,0.205v0.25c0,0.063,0.02,0.081,0.075,0.081v0.023
			c-0.024-0.001-0.077-0.004-0.127-0.004s-0.109,0.003-0.135,0.004v-0.023c0.063,0,0.086-0.019,0.086-0.081v-0.352
			c0-0.068-0.02-0.1-0.086-0.1v-0.023c0.024,0.002,0.047,0.003,0.07,0.003c0.044,0,0.085-0.005,0.117-0.016v0.133
			c0.04-0.102,0.115-0.136,0.192-0.136C14.429,26.384,14.465,26.399,14.491,26.426z"/>
		<path style="fill:#666666;" d="M15.171,26.399v0.022c-0.028,0.003-0.051,0.021-0.073,0.079l-0.184,0.483l-0.039,0.098
			c-0.015,0.038-0.03,0.063-0.048,0.079c-0.025,0.022-0.061,0.029-0.088,0.029c-0.043,0-0.076-0.024-0.076-0.068
			c0-0.035,0.023-0.059,0.06-0.059c0.032,0,0.057,0.018,0.057,0.053c0,0.025-0.015,0.041-0.03,0.05
			c0.003,0.002,0.005,0.002,0.007,0.002c0.04,0,0.072-0.026,0.096-0.088l0.04-0.103l-0.205-0.491
			c-0.029-0.059-0.058-0.063-0.076-0.063v-0.023c0.032,0.004,0.067,0.007,0.11,0.007c0.045,0,0.101-0.004,0.146-0.007v0.023
			c-0.042,0-0.078,0-0.078,0.039c0,0.013,0.004,0.031,0.014,0.056l0.136,0.336l0.124-0.326c0.008-0.021,0.012-0.038,0.012-0.052
			c0-0.035-0.027-0.05-0.084-0.054v-0.022c0.039,0.002,0.06,0.003,0.094,0.003C15.121,26.402,15.148,26.401,15.171,26.399z"/>
		<path style="fill:#666666;" d="M15.789,26.4v0.022h-0.166v0.436c0,0.07,0.027,0.096,0.072,0.096s0.078-0.032,0.102-0.12
			l0.022,0.005c-0.015,0.088-0.055,0.155-0.146,0.155c-0.052,0-0.082-0.013-0.107-0.037c-0.033-0.033-0.044-0.077-0.044-0.157
			v-0.377h-0.108V26.4h0.108v-0.172c0.037-0.002,0.073-0.006,0.101-0.017V26.4H15.789z"/>
		<path style="fill:#666666;" d="M16.22,26.426c0.036,0.036,0.045,0.078,0.045,0.158v0.313c0,0.036,0.009,0.053,0.035,0.053
			c0.02,0,0.035-0.01,0.05-0.023l0.013,0.019c-0.031,0.024-0.055,0.041-0.103,0.041c-0.079,0-0.097-0.047-0.097-0.1
			c-0.048,0.079-0.119,0.1-0.173,0.1c-0.076,0-0.143-0.038-0.143-0.126c0-0.089,0.069-0.129,0.181-0.176
			c0.075-0.031,0.135-0.051,0.135-0.096V26.52c0-0.095-0.046-0.113-0.104-0.113c-0.039,0-0.085,0.008-0.111,0.04
			C15.975,26.453,16,26.479,16,26.515c0,0.039-0.026,0.062-0.066,0.062c-0.039,0-0.061-0.029-0.061-0.07
			c0-0.033,0.021-0.059,0.053-0.08c0.032-0.021,0.085-0.042,0.158-0.042C16.146,26.384,16.194,26.4,16.22,26.426z M16.163,26.635
			c-0.012,0.018-0.037,0.03-0.108,0.064c-0.049,0.024-0.109,0.057-0.109,0.143c0,0.068,0.038,0.1,0.09,0.1
			c0.045,0,0.089-0.023,0.127-0.085V26.635z"/>
		<path style="fill:#666666;" d="M16.788,26.854c0.071,0,0.132,0.026,0.132,0.104c0,0.101-0.097,0.231-0.315,0.231
			c-0.113,0-0.226-0.035-0.226-0.103c0-0.055,0.07-0.106,0.141-0.138h-0.004c-0.039,0-0.112-0.01-0.112-0.086
			c0-0.048,0.033-0.094,0.141-0.142c-0.063-0.025-0.104-0.076-0.104-0.161c0-0.123,0.089-0.177,0.208-0.177
			c0.029,0,0.056,0.003,0.08,0.01c0.008-0.042,0.022-0.077,0.039-0.1c0.018-0.022,0.044-0.038,0.077-0.038
			c0.038,0,0.059,0.026,0.059,0.059c0,0.03-0.022,0.055-0.054,0.055c-0.041,0-0.053-0.027-0.06-0.071
			c-0.011,0.01-0.021,0.028-0.03,0.055c-0.003,0.013-0.009,0.028-0.011,0.047c0.065,0.024,0.108,0.076,0.108,0.161
			c0,0.124-0.09,0.179-0.208,0.179c-0.03,0-0.058-0.004-0.083-0.011c-0.05,0.027-0.094,0.055-0.094,0.089
			c0,0.024,0.015,0.037,0.054,0.037H16.788z M16.842,27.012c0-0.041-0.017-0.063-0.086-0.063h-0.209
			c-0.049,0.025-0.076,0.072-0.076,0.114c0,0.076,0.089,0.107,0.164,0.107C16.729,27.171,16.842,27.12,16.842,27.012z M16.545,26.56
			c0,0.121,0.04,0.158,0.102,0.158c0.063,0,0.103-0.037,0.103-0.158c0-0.12-0.04-0.157-0.103-0.157
			C16.584,26.403,16.545,26.44,16.545,26.56z"/>
		<path style="fill:#666666;" d="M17.145,26.874c0,0.063,0.023,0.081,0.086,0.081v0.023c-0.026-0.001-0.085-0.004-0.136-0.004
			c-0.052,0-0.111,0.003-0.136,0.004v-0.023c0.062,0,0.086-0.019,0.086-0.081v-0.643c0-0.067-0.02-0.099-0.086-0.099v-0.023
			c0.023,0.002,0.047,0.003,0.069,0.003c0.044,0,0.085-0.005,0.117-0.016V26.874z"/>
		<path style="fill:#666666;" d="M17.471,26.874c0,0.063,0.023,0.081,0.085,0.081v0.023c-0.026-0.001-0.084-0.004-0.136-0.004
			c-0.051,0-0.11,0.003-0.136,0.004v-0.023c0.062,0,0.086-0.019,0.086-0.081v-0.352c0-0.068-0.021-0.1-0.086-0.1v-0.023
			c0.024,0.002,0.047,0.003,0.07,0.003c0.044,0,0.085-0.005,0.117-0.016V26.874z M17.484,26.19c0,0.04-0.033,0.072-0.072,0.072
			c-0.04,0-0.072-0.032-0.072-0.072c0-0.039,0.033-0.071,0.072-0.071C17.451,26.118,17.484,26.15,17.484,26.19z"/>
		<path style="fill:#666666;" d="M18.107,26.426c0.028,0.031,0.039,0.071,0.039,0.147v0.301c0,0.063,0.023,0.081,0.085,0.081v0.023
			c-0.026-0.001-0.085-0.004-0.135-0.004c-0.049,0-0.102,0.003-0.125,0.004v-0.023c0.054,0,0.074-0.019,0.074-0.081v-0.325
			c0-0.069-0.01-0.13-0.091-0.13c-0.095,0-0.158,0.091-0.158,0.205v0.25c0,0.063,0.02,0.081,0.075,0.081v0.023
			c-0.023-0.001-0.077-0.004-0.126-0.004c-0.049,0-0.109,0.003-0.135,0.004v-0.023c0.063,0,0.086-0.019,0.086-0.081v-0.352
			c0-0.068-0.02-0.1-0.086-0.1v-0.023c0.024,0.002,0.047,0.003,0.07,0.003c0.044,0,0.085-0.005,0.117-0.016v0.133
			c0.039-0.102,0.115-0.136,0.192-0.136C18.045,26.384,18.081,26.399,18.107,26.426z"/>
		<path style="fill:#666666;" d="M18.762,26.844c-0.024,0.075-0.099,0.15-0.21,0.15c-0.163,0-0.259-0.119-0.259-0.291
			c0-0.198,0.1-0.319,0.254-0.319c0.132,0,0.21,0.077,0.21,0.247h-0.352c-0.003,0.021-0.004,0.047-0.004,0.072
			c0,0.154,0.086,0.244,0.172,0.244c0.067,0,0.126-0.028,0.165-0.112L18.762,26.844z M18.404,26.609h0.245
			c0.004-0.109-0.031-0.204-0.106-0.204C18.476,26.405,18.417,26.468,18.404,26.609z"/>
		<path style="fill:#666666;" d="M19.257,26.519c0.04-0.102,0.115-0.135,0.191-0.135c0.058,0,0.093,0.016,0.119,0.042
			c0.028,0.031,0.039,0.071,0.039,0.147v0.301c0,0.063,0.024,0.081,0.086,0.081v0.023c-0.026-0.001-0.086-0.004-0.135-0.004
			s-0.103,0.003-0.126,0.004v-0.023c0.055,0,0.075-0.019,0.075-0.081v-0.325c0-0.069-0.01-0.13-0.091-0.13
			c-0.093,0-0.158,0.085-0.158,0.204v0.251c0,0.063,0.02,0.081,0.074,0.081v0.023c-0.024-0.001-0.076-0.004-0.125-0.004
			c-0.049,0-0.109,0.003-0.135,0.004v-0.023c0.062,0,0.086-0.019,0.086-0.081v-0.642c0-0.067-0.021-0.099-0.086-0.099V26.11
			c0.023,0.002,0.047,0.003,0.07,0.003c0.044,0,0.084-0.004,0.117-0.016V26.519z"/>
		<path style="fill:#666666;" d="M20.223,26.844c-0.025,0.075-0.099,0.15-0.211,0.15c-0.164,0-0.259-0.119-0.259-0.291
			c0-0.198,0.1-0.319,0.254-0.319c0.132,0,0.21,0.077,0.21,0.247h-0.352c-0.002,0.021-0.003,0.047-0.003,0.072
			c0,0.154,0.085,0.244,0.172,0.244c0.067,0,0.126-0.028,0.165-0.112L20.223,26.844z M19.865,26.609h0.245
			c0.004-0.109-0.031-0.204-0.106-0.204C19.936,26.405,19.877,26.468,19.865,26.609z"/>
		<path style="fill:#666666;" d="M20.749,26.472c0,0.039-0.024,0.071-0.064,0.071c-0.031,0-0.06-0.021-0.06-0.059
			c0-0.027,0.018-0.048,0.039-0.061c-0.005-0.008-0.014-0.011-0.024-0.011c-0.094,0-0.156,0.128-0.156,0.211v0.238
			c0,0.073,0.045,0.093,0.119,0.093v0.023c-0.035-0.001-0.104-0.004-0.173-0.004c-0.052,0-0.107,0.003-0.133,0.004v-0.023
			c0.062,0,0.086-0.019,0.086-0.081v-0.352c0-0.068-0.021-0.1-0.086-0.1v-0.023c0.024,0.002,0.047,0.003,0.07,0.003
			c0.044,0,0.085-0.005,0.117-0.016v0.141c0.023-0.065,0.084-0.143,0.163-0.143C20.708,26.384,20.749,26.424,20.749,26.472z"/>
		<path style="fill:#666666;" d="M21.258,26.844c-0.025,0.075-0.099,0.15-0.21,0.15c-0.164,0-0.259-0.119-0.259-0.291
			c0-0.198,0.1-0.319,0.254-0.319c0.132,0,0.21,0.077,0.21,0.247h-0.351c-0.003,0.021-0.003,0.047-0.003,0.072
			c0,0.154,0.086,0.244,0.172,0.244c0.067,0,0.127-0.028,0.165-0.112L21.258,26.844z M20.9,26.609h0.245
			c0.004-0.109-0.031-0.204-0.106-0.204C20.971,26.405,20.912,26.468,20.9,26.609z"/>
	</g>
	<g>
		<g>
			<path style="fill:#A3A3A3;" d="M10.052,21.022c-0.391,0.018-0.46,0.08-0.46,0.525v3.032c0,0.444,0.075,0.508,0.46,0.525v0.122
				c-0.2-0.012-0.552-0.018-0.928-0.018c-0.355,0-0.734,0.006-0.961,0.018v-0.122c0.391-0.018,0.46-0.081,0.46-0.525v-1.469H7.002
				v1.469c0,0.444,0.072,0.508,0.46,0.525v0.122C7.24,25.216,6.877,25.21,6.536,25.21c-0.391,0-0.758,0.006-0.964,0.018v-0.122
				c0.388-0.018,0.457-0.081,0.457-0.525v-3.032c0-0.445-0.072-0.508-0.457-0.525V20.9c0.206,0.012,0.573,0.018,0.964,0.018
				c0.34,0,0.704-0.006,0.925-0.018v0.122c-0.391,0.018-0.46,0.08-0.46,0.525v1.441h1.621v-1.441c0-0.445-0.071-0.508-0.46-0.525
				V20.9c0.227,0.012,0.606,0.018,0.961,0.018c0.376,0,0.728-0.006,0.928-0.018V21.022z"/>
			<path style="fill:#FFFFFF;" d="M10.052,20.9v0.122c-0.391,0.018-0.46,0.08-0.46,0.525v3.032c0,0.444,0.075,0.508,0.46,0.525
				v0.122c-0.2-0.012-0.552-0.018-0.928-0.018c-0.355,0-0.734,0.006-0.961,0.018v-0.122c0.391-0.018,0.46-0.081,0.46-0.525v-1.469
				H7.002v1.469c0,0.444,0.072,0.508,0.46,0.525v0.122C7.24,25.216,6.877,25.21,6.536,25.21c-0.391,0-0.758,0.006-0.964,0.018
				v-0.122c0.388-0.018,0.457-0.081,0.457-0.525v-3.032c0-0.445-0.072-0.508-0.457-0.525V20.9c0.206,0.012,0.573,0.018,0.964,0.018
				c0.34,0,0.704-0.006,0.925-0.018v0.122c-0.391,0.018-0.46,0.08-0.46,0.525v1.441h1.621v-1.441c0-0.445-0.071-0.508-0.46-0.525
				V20.9c0.227,0.012,0.606,0.018,0.961,0.018C9.5,20.918,9.852,20.912,10.052,20.9L10.052,20.9z M10.243,20.697L10.04,20.71
				c-0.187,0.011-0.521,0.018-0.917,0.018c-0.38,0-0.745-0.007-0.951-0.019l-0.201-0.01V20.9v0.122v0.182l0.182,0.009
				c0.188,0.009,0.232,0.028,0.243,0.04c0.013,0.015,0.035,0.072,0.035,0.295v1.251H7.192v-1.251c0-0.224,0.022-0.281,0.034-0.296
				c0.01-0.011,0.055-0.03,0.244-0.039l0.182-0.009v-0.182V20.9v-0.202L7.451,20.71c-0.201,0.011-0.552,0.018-0.915,0.018
				c-0.407,0-0.763-0.007-0.953-0.018l-0.202-0.012V20.9v0.122v0.182l0.182,0.009c0.185,0.009,0.23,0.028,0.24,0.039
				c0.013,0.015,0.035,0.072,0.035,0.296v3.032c0,0.224-0.022,0.281-0.034,0.296c-0.01,0.011-0.054,0.03-0.241,0.039l-0.182,0.008
				v0.183v0.122v0.202l0.202-0.012c0.19-0.011,0.546-0.018,0.953-0.018c0.363,0,0.714,0.007,0.915,0.018l0.201,0.012v-0.202v-0.122
				v-0.183L7.47,24.915c-0.188-0.009-0.232-0.029-0.243-0.04c-0.013-0.015-0.035-0.072-0.035-0.295v-1.277h1.239v1.277
				c0,0.224-0.021,0.281-0.035,0.295c-0.01,0.012-0.055,0.031-0.243,0.04l-0.182,0.008v0.183v0.122v0.201l0.201-0.011
				C8.379,25.407,8.744,25.4,9.124,25.4c0.396,0,0.73,0.007,0.917,0.018l0.202,0.013v-0.203v-0.122v-0.183l-0.182-0.008
				c-0.186-0.009-0.232-0.029-0.242-0.041c-0.013-0.015-0.036-0.072-0.036-0.294v-3.032c0-0.224,0.021-0.281,0.034-0.296
				c0.01-0.011,0.055-0.03,0.244-0.039l0.182-0.009v-0.182V20.9V20.697L10.243,20.697z"/>
		</g>
		<g>
			<path style="fill:#A3A3A3;" d="M14.795,23.028c0,1.367-0.896,2.286-2.164,2.286c-1.296,0-2.158-0.816-2.158-2.215
				c0-1.367,0.892-2.286,2.164-2.286C13.929,20.813,14.795,21.628,14.795,23.028z M11.488,23.076c0,1.301,0.523,2.128,1.167,2.128
				c0.684,0,1.125-0.887,1.125-2.152c0-1.301-0.522-2.128-1.17-2.128C11.926,20.924,11.488,21.81,11.488,23.076z"/>
			<path style="fill:#FFFFFF;" d="M12.637,20.813c1.293,0,2.158,0.814,2.158,2.215c0,1.367-0.896,2.286-2.164,2.286
				c-1.296,0-2.158-0.816-2.158-2.215C10.473,21.732,11.365,20.813,12.637,20.813L12.637,20.813z M12.655,25.204
				c0.684,0,1.125-0.887,1.125-2.152c0-1.301-0.522-2.128-1.17-2.128c-0.684,0-1.122,0.887-1.122,2.152
				C11.488,24.377,12.01,25.204,12.655,25.204L12.655,25.204z M12.637,20.623c-0.338,0-0.656,0.06-0.947,0.179
				c-0.287,0.117-0.539,0.289-0.75,0.511c-0.211,0.221-0.375,0.485-0.486,0.787c-0.114,0.306-0.171,0.642-0.171,1
				c0,0.73,0.225,1.341,0.649,1.767c0.417,0.418,1.004,0.639,1.7,0.639c1.386,0,2.355-1.019,2.355-2.477
				c0-0.73-0.225-1.341-0.65-1.768C13.918,20.844,13.332,20.623,12.637,20.623L12.637,20.623z M12.655,25.014
				c-0.249,0-0.483-0.171-0.66-0.481c-0.204-0.357-0.316-0.875-0.316-1.457c0-0.588,0.101-1.107,0.284-1.464
				c0.211-0.411,0.469-0.498,0.648-0.498c0.25,0,0.485,0.171,0.663,0.48c0.204,0.357,0.317,0.874,0.317,1.457
				c0,0.587-0.102,1.106-0.285,1.463C13.092,24.927,12.834,25.014,12.655,25.014L12.655,25.014z"/>
		</g>
		<g>
			<path style="fill:#A3A3A3;" d="M19.355,24.959c-0.218,0.251-0.454,0.356-0.812,0.356c-0.439,0-0.734-0.152-0.827-0.663
				l-0.107-0.608c-0.089-0.511-0.188-0.869-0.57-0.869h-0.397v1.406c0,0.444,0.071,0.508,0.459,0.525v0.122
				c-0.221-0.012-0.585-0.018-0.925-0.018c-0.391,0-0.758,0.006-0.964,0.018v-0.122c0.388-0.018,0.457-0.081,0.457-0.525v-3.032
				c0-0.445-0.072-0.508-0.457-0.525V20.9c0.206,0.012,0.585,0.018,0.928,0.018c0.4,0,0.806-0.012,0.961-0.012
				c1.137,0,1.692,0.391,1.692,1.063c0,0.495-0.301,1.059-1.373,1.182h0.003c0.74,0.063,1.066,0.299,1.173,0.806l0.137,0.63
				c0.068,0.325,0.137,0.439,0.29,0.439c0.104,0,0.17-0.047,0.248-0.14L19.355,24.959z M16.643,21.548v1.504h0.263
				c0.722,0,0.875-0.453,0.875-1.015c0-0.642-0.203-1.015-0.758-1.015C16.708,21.022,16.643,21.127,16.643,21.548z"/>
			<path style="fill:#FFFFFF;" d="M15.213,20.9c0.206,0.012,0.585,0.018,0.928,0.018c0.4,0,0.806-0.012,0.961-0.012
				c1.137,0,1.692,0.391,1.692,1.063c0,0.495-0.301,1.059-1.373,1.182h0.003c0.74,0.063,1.066,0.299,1.173,0.806l0.137,0.63
				c0.068,0.325,0.137,0.439,0.29,0.439c0.104,0,0.17-0.047,0.248-0.14l0.083,0.074c-0.218,0.251-0.454,0.356-0.812,0.356
				c-0.439,0-0.734-0.152-0.827-0.663l-0.107-0.608c-0.089-0.511-0.188-0.869-0.57-0.869h-0.397v1.406
				c0,0.444,0.071,0.508,0.459,0.525v0.122c-0.221-0.012-0.585-0.018-0.925-0.018c-0.391,0-0.758,0.006-0.964,0.018v-0.122
				c0.388-0.018,0.457-0.081,0.457-0.525v-3.032c0-0.445-0.072-0.508-0.457-0.525V20.9L15.213,20.9z M16.643,23.052h0.263
				c0.722,0,0.875-0.453,0.875-1.015c0-0.642-0.203-1.015-0.758-1.015c-0.313,0-0.379,0.105-0.379,0.525V23.052L16.643,23.052z
				 M15.022,20.698V20.9v0.122v0.182l0.182,0.009c0.185,0.009,0.23,0.028,0.24,0.039c0.013,0.015,0.035,0.072,0.035,0.296v3.032
				c0,0.224-0.022,0.281-0.034,0.296c-0.01,0.011-0.054,0.03-0.24,0.039l-0.182,0.008v0.183v0.122v0.202l0.202-0.012
				c0.19-0.011,0.546-0.018,0.953-0.018c0.363,0,0.714,0.007,0.915,0.018l0.201,0.012v-0.202v-0.122v-0.183l-0.182-0.008
				c-0.188-0.009-0.232-0.029-0.243-0.04c-0.013-0.015-0.035-0.072-0.035-0.295v-1.215h0.206c0.108,0,0.17,0.039,0.227,0.144
				c0.068,0.124,0.111,0.316,0.155,0.567l0.108,0.608v0.001l0,0c0.054,0.297,0.171,0.507,0.359,0.644
				c0.164,0.118,0.378,0.176,0.655,0.176c0.414,0,0.7-0.126,0.956-0.421l0.123-0.142l-0.141-0.126l-0.084-0.074l-0.146-0.131
				l-0.126,0.15c-0.061,0.072-0.078,0.072-0.102,0.072c-0.004,0-0.007,0-0.009,0c-0.013-0.014-0.048-0.067-0.094-0.287v-0.001
				l0-0.001l-0.137-0.629c-0.065-0.308-0.205-0.531-0.427-0.686c-0.047-0.033-0.098-0.063-0.153-0.09
				c0.176-0.081,0.324-0.184,0.443-0.309c0.221-0.231,0.338-0.528,0.338-0.862c0-0.469-0.245-1.254-1.883-1.254
				c-0.061,0-0.157,0.002-0.278,0.004c-0.195,0.004-0.438,0.009-0.683,0.009c-0.373,0-0.733-0.008-0.917-0.018L15.022,20.698
				L15.022,20.698z M16.833,22.861v-1.313c0-0.214,0.021-0.287,0.037-0.311c0.002-0.003,0.021-0.024,0.151-0.024
				c0.271,0,0.375,0.105,0.43,0.185c0.091,0.132,0.137,0.347,0.137,0.64c0,0.282-0.043,0.482-0.132,0.608
				c-0.038,0.054-0.151,0.216-0.552,0.216H16.833L16.833,22.861z"/>
		</g>
		<g>
			<path style="fill:#A3A3A3;" d="M21.863,21.059c0.099,0.06,0.152,0.086,0.206,0.086c0.081,0,0.11-0.093,0.137-0.269h0.14
				c-0.021,0.242-0.033,0.534-0.033,1.394h-0.14c-0.042-0.636-0.385-1.301-1.039-1.301c-0.391,0-0.671,0.235-0.671,0.624
				c0,0.492,0.373,0.692,1.057,1.151c0.579,0.386,1.033,0.717,1.033,1.379c0,0.807-0.695,1.192-1.516,1.192
				c-0.507,0-0.776-0.116-0.982-0.227c-0.099-0.063-0.161-0.087-0.209-0.087c-0.081,0-0.11,0.093-0.134,0.269H19.57
				c0.018-0.286,0.024-0.678,0.024-1.65h0.141c0.051,0.814,0.331,1.534,1.113,1.534c0.427,0,0.758-0.226,0.758-0.684
				c0-0.502-0.379-0.791-0.916-1.138c-0.582-0.369-1.089-0.713-1.089-1.394c0-0.77,0.653-1.116,1.37-1.116
				C21.448,20.822,21.672,20.944,21.863,21.059z"/>
			<path style="fill:#FFFFFF;" d="M20.97,20.822c0.478,0,0.702,0.122,0.893,0.236c0.099,0.06,0.152,0.086,0.206,0.086
				c0.081,0,0.11-0.093,0.137-0.269h0.14c-0.021,0.242-0.033,0.534-0.033,1.394h-0.14c-0.042-0.636-0.385-1.301-1.039-1.301
				c-0.391,0-0.671,0.235-0.671,0.624c0,0.492,0.373,0.692,1.057,1.151c0.579,0.386,1.033,0.717,1.033,1.379
				c0,0.807-0.695,1.192-1.516,1.192c-0.507,0-0.776-0.116-0.982-0.227c-0.099-0.063-0.161-0.087-0.209-0.087
				c-0.081,0-0.11,0.093-0.134,0.269H19.57c0.018-0.286,0.024-0.678,0.024-1.65h0.141c0.051,0.814,0.331,1.534,1.113,1.534
				c0.427,0,0.758-0.226,0.758-0.684c0-0.502-0.379-0.791-0.916-1.138c-0.582-0.369-1.089-0.713-1.089-1.394
				C19.601,21.169,20.254,20.822,20.97,20.822L20.97,20.822z M20.97,20.632c-0.414,0-0.792,0.108-1.065,0.306
				c-0.324,0.233-0.495,0.58-0.495,1.001c0,0.806,0.625,1.204,1.177,1.555c0.279,0.18,0.48,0.322,0.621,0.477
				c0.144,0.158,0.208,0.312,0.208,0.499c0,0.16-0.051,0.283-0.151,0.366c-0.099,0.083-0.243,0.127-0.417,0.127
				c-0.295,0-0.514-0.122-0.669-0.372c-0.142-0.229-0.228-0.56-0.254-0.983l-0.011-0.179h-0.179h-0.141h-0.19v0.19
				c0,0.956-0.006,1.354-0.023,1.639l-0.013,0.202h0.203h0.141h0.167l0.023-0.165c0.004-0.028,0.008-0.052,0.011-0.071
				c0.012,0.007,0.025,0.015,0.041,0.024l0.006,0.004l0.006,0.004c0.242,0.129,0.539,0.249,1.072,0.249
				c0.468,0,0.875-0.113,1.177-0.328c0.347-0.247,0.53-0.611,0.53-1.054c0-0.35-0.113-0.65-0.346-0.918
				c-0.201-0.232-0.468-0.418-0.771-0.619c-0.061-0.041-0.12-0.08-0.176-0.117c-0.591-0.394-0.796-0.547-0.796-0.876
				c0-0.134,0.043-0.24,0.126-0.316c0.085-0.076,0.208-0.117,0.354-0.117c0.239,0,0.438,0.111,0.593,0.331
				c0.143,0.203,0.236,0.492,0.256,0.792l0.012,0.179h0.179h0.14h0.191V22.27c0-0.845,0.011-1.136,0.032-1.377l0.018-0.207h-0.208
				h-0.14h-0.164l-0.024,0.162c-0.005,0.029-0.009,0.054-0.013,0.073c-0.013-0.008-0.027-0.017-0.043-0.026h-0.001H21.96
				C21.736,20.762,21.476,20.632,20.97,20.632L20.97,20.632z"/>
		</g>
		<g>
			<path style="fill:#A3A3A3;" d="M26.403,25.228c-0.415-0.018-0.988-0.018-1.4-0.018c-0.409,0-1.325,0-1.991,0.018v-0.122
				c0.388-0.018,0.457-0.081,0.457-0.525v-3.032c0-0.445-0.072-0.508-0.457-0.525V20.9c0.666,0.018,1.582,0.018,1.991,0.018
				c0.373,0,0.901,0,1.277-0.018c-0.03,0.36-0.042,0.727-0.042,0.904c0,0.161,0.006,0.316,0.018,0.414h-0.14
				c-0.123-0.895-0.442-1.179-1.003-1.179h-0.251c-0.355,0-0.42,0.054-0.42,0.436v1.514h0.197c0.49,0,0.663-0.475,0.728-0.806h0.141
				c-0.018,0.26-0.021,0.436-0.021,0.576c0,0.113,0.003,0.203,0.003,0.292c0,0.2,0.006,0.403,0.036,0.869h-0.14
				c-0.063-0.431-0.256-0.81-0.746-0.81h-0.197v1.54c0,0.383,0.065,0.437,0.42,0.437h0.302c0.546,0,0.922-0.316,1.074-1.302h0.141
				c-0.012,0.132-0.018,0.313-0.018,0.514C26.361,24.481,26.367,24.86,26.403,25.228z"/>
			<path style="fill:#FFFFFF;" d="M26.28,20.9c-0.03,0.36-0.042,0.727-0.042,0.904c0,0.161,0.006,0.316,0.018,0.414h-0.14
				c-0.123-0.895-0.442-1.179-1.003-1.179h-0.251c-0.355,0-0.42,0.054-0.42,0.436v1.514h0.197c0.49,0,0.663-0.475,0.728-0.806h0.141
				c-0.018,0.26-0.021,0.436-0.021,0.576c0,0.113,0.003,0.203,0.003,0.292c0,0.2,0.006,0.403,0.036,0.869h-0.14
				c-0.063-0.431-0.256-0.81-0.746-0.81h-0.197v1.54c0,0.383,0.065,0.437,0.42,0.437h0.302c0.546,0,0.922-0.316,1.074-1.302h0.141
				c-0.012,0.132-0.018,0.313-0.018,0.514c0,0.182,0.006,0.561,0.042,0.928c-0.415-0.018-0.988-0.018-1.4-0.018
				c-0.409,0-1.325,0-1.991,0.018v-0.122c0.388-0.018,0.457-0.081,0.457-0.525v-3.032c0-0.445-0.072-0.508-0.457-0.525V20.9
				c0.666,0.018,1.582,0.018,1.991,0.018C25.376,20.918,25.904,20.918,26.28,20.9L26.28,20.9z M26.488,20.699l-0.217,0.01
				c-0.371,0.019-0.89,0.019-1.268,0.019c-0.396,0-1.323,0-1.986-0.019l-0.196-0.005V20.9v0.122v0.182l0.182,0.009
				c0.186,0.009,0.23,0.028,0.24,0.039c0.013,0.015,0.035,0.072,0.035,0.296v3.032c0,0.224-0.021,0.281-0.034,0.296
				c-0.01,0.011-0.054,0.03-0.24,0.039l-0.182,0.008v0.183v0.122v0.196l0.196-0.005c0.663-0.018,1.59-0.018,1.986-0.018
				c0.414,0,0.981,0,1.392,0.018l0.219,0.01l-0.021-0.219c-0.037-0.378-0.041-0.762-0.041-0.909c0-0.198,0.006-0.375,0.017-0.496
				l0.019-0.208h-0.209h-0.141h-0.164l-0.025,0.161c-0.067,0.433-0.182,0.742-0.343,0.922c-0.133,0.148-0.306,0.218-0.543,0.218
				h-0.302c-0.146,0-0.193-0.011-0.208-0.019c-0.007-0.015-0.022-0.063-0.022-0.226v-1.349h0.006c0.199,0,0.473,0.066,0.558,0.646
				l0.023,0.163h0.165h0.14h0.204l-0.013-0.203c-0.029-0.462-0.035-0.664-0.035-0.856c0-0.044-0.001-0.086-0.002-0.132
				c-0.001-0.05-0.001-0.102-0.001-0.16c0-0.132,0.003-0.302,0.02-0.563l0.014-0.204h-0.204h-0.141H25.21l-0.031,0.154
				c-0.038,0.191-0.096,0.344-0.174,0.454c-0.095,0.135-0.212,0.198-0.367,0.198h-0.006v-1.323c0-0.163,0.015-0.212,0.022-0.226
				c0.015-0.008,0.062-0.019,0.208-0.019h0.251c0.243,0,0.405,0.059,0.524,0.191c0.14,0.155,0.235,0.424,0.29,0.823l0.022,0.165
				h0.167h0.14h0.215l-0.026-0.214c-0.01-0.085-0.017-0.232-0.017-0.392c0-0.189,0.013-0.547,0.041-0.889L26.488,20.699
				L26.488,20.699z"/>
		</g>
	</g>
</g>
<g>
</g>
<g>
</g>
<g>
</g>
<g>
</g>
<g>
</g>
<g>
</g>
<g>
</g>
<g>
</g>
<g>
</g>
<g>
</g>
<g>
</g>
<g>
</g>
<g>
</g>
<g>
</g>
<g>
</g>
</svg>
